<mxfile host="app.diagrams.net" modified="2023-08-02T05:14:47.456Z" agent="Mozilla/5.0 (Macintosh; Intel Mac OS X 10_15_7) AppleWebKit/537.36 (KHTML, like Gecko) Chrome/115.0.0.0 Safari/537.36" etag="wRqLR5A_jfr4mLLlZHg4" version="21.6.6" type="github">
  <diagram name="第 1 页" id="jo7GsaocbIWYC5jEGKXX">
    <mxGraphModel dx="1242" dy="723" grid="1" gridSize="10" guides="1" tooltips="1" connect="1" arrows="1" fold="1" page="1" pageScale="1" pageWidth="827" pageHeight="1169" math="0" shadow="0">
      <root>
        <mxCell id="0" />
        <mxCell id="1" parent="0" />
        <mxCell id="TodTcmGc1-GH6dj1RsD3-1" value="" style="rounded=1;whiteSpace=wrap;html=1;" vertex="1" parent="1">
          <mxGeometry x="210" y="90" width="470" height="140" as="geometry" />
        </mxCell>
        <mxCell id="TodTcmGc1-GH6dj1RsD3-2" value="" style="endArrow=none;dashed=1;html=1;rounded=0;" edge="1" parent="1">
          <mxGeometry width="50" height="50" relative="1" as="geometry">
            <mxPoint x="80" y="240" as="sourcePoint" />
            <mxPoint x="770" y="240" as="targetPoint" />
          </mxGeometry>
        </mxCell>
        <mxCell id="TodTcmGc1-GH6dj1RsD3-4" value="" style="endArrow=none;html=1;rounded=0;" edge="1" parent="1">
          <mxGeometry width="50" height="50" relative="1" as="geometry">
            <mxPoint x="200" y="640" as="sourcePoint" />
            <mxPoint x="200" y="80" as="targetPoint" />
          </mxGeometry>
        </mxCell>
        <mxCell id="TodTcmGc1-GH6dj1RsD3-6" value="connect" style="rounded=1;whiteSpace=wrap;html=1;" vertex="1" parent="1">
          <mxGeometry x="230" y="100" width="90" height="55" as="geometry" />
        </mxCell>
        <mxCell id="TodTcmGc1-GH6dj1RsD3-7" value="createTable" style="rounded=1;whiteSpace=wrap;html=1;" vertex="1" parent="1">
          <mxGeometry x="400" y="100" width="90" height="55" as="geometry" />
        </mxCell>
        <mxCell id="TodTcmGc1-GH6dj1RsD3-9" value="shutdown" style="rounded=1;whiteSpace=wrap;html=1;" vertex="1" parent="1">
          <mxGeometry x="570" y="100" width="90" height="55" as="geometry" />
        </mxCell>
        <mxCell id="TodTcmGc1-GH6dj1RsD3-10" value="upsert" style="rounded=1;whiteSpace=wrap;html=1;" vertex="1" parent="1">
          <mxGeometry x="230" y="165" width="90" height="55" as="geometry" />
        </mxCell>
        <mxCell id="TodTcmGc1-GH6dj1RsD3-11" value="executeLatestQuery" style="rounded=1;whiteSpace=wrap;html=1;" vertex="1" parent="1">
          <mxGeometry x="400" y="165" width="90" height="55" as="geometry" />
        </mxCell>
        <mxCell id="TodTcmGc1-GH6dj1RsD3-13" value="executeTimeRangeQuery" style="rounded=1;whiteSpace=wrap;html=1;" vertex="1" parent="1">
          <mxGeometry x="570" y="165" width="90" height="55" as="geometry" />
        </mxCell>
        <mxCell id="TodTcmGc1-GH6dj1RsD3-14" value="接口层" style="text;html=1;strokeColor=none;fillColor=none;align=center;verticalAlign=middle;whiteSpace=wrap;rounded=0;" vertex="1" parent="1">
          <mxGeometry x="100" y="155" width="60" height="30" as="geometry" />
        </mxCell>
        <mxCell id="TodTcmGc1-GH6dj1RsD3-15" value="" style="endArrow=none;dashed=1;html=1;dashPattern=1 3;strokeWidth=2;rounded=0;" edge="1" parent="1">
          <mxGeometry width="50" height="50" relative="1" as="geometry">
            <mxPoint x="80" y="400" as="sourcePoint" />
            <mxPoint x="760" y="400" as="targetPoint" />
          </mxGeometry>
        </mxCell>
        <mxCell id="TodTcmGc1-GH6dj1RsD3-22" value="" style="edgeStyle=orthogonalEdgeStyle;rounded=0;orthogonalLoop=1;jettySize=auto;html=1;" edge="1" parent="1" source="TodTcmGc1-GH6dj1RsD3-17" target="TodTcmGc1-GH6dj1RsD3-21">
          <mxGeometry relative="1" as="geometry" />
        </mxCell>
        <mxCell id="TodTcmGc1-GH6dj1RsD3-23" value="异步更新持久化" style="edgeLabel;html=1;align=center;verticalAlign=middle;resizable=0;points=[];" vertex="1" connectable="0" parent="TodTcmGc1-GH6dj1RsD3-22">
          <mxGeometry x="-0.2" relative="1" as="geometry">
            <mxPoint as="offset" />
          </mxGeometry>
        </mxCell>
        <mxCell id="TodTcmGc1-GH6dj1RsD3-17" value="" style="rounded=1;whiteSpace=wrap;html=1;" vertex="1" parent="1">
          <mxGeometry x="210" y="250" width="470" height="140" as="geometry" />
        </mxCell>
        <mxCell id="TodTcmGc1-GH6dj1RsD3-18" value="内存处理层" style="text;html=1;strokeColor=none;fillColor=none;align=center;verticalAlign=middle;whiteSpace=wrap;rounded=0;" vertex="1" parent="1">
          <mxGeometry x="100" y="305" width="60" height="30" as="geometry" />
        </mxCell>
        <mxCell id="TodTcmGc1-GH6dj1RsD3-20" value="文件处理层" style="text;html=1;strokeColor=none;fillColor=none;align=center;verticalAlign=middle;whiteSpace=wrap;rounded=0;" vertex="1" parent="1">
          <mxGeometry x="100" y="470" width="60" height="30" as="geometry" />
        </mxCell>
        <mxCell id="TodTcmGc1-GH6dj1RsD3-21" value="" style="rounded=1;whiteSpace=wrap;html=1;" vertex="1" parent="1">
          <mxGeometry x="210" y="430" width="470" height="140" as="geometry" />
        </mxCell>
      </root>
    </mxGraphModel>
  </diagram>
</mxfile>
